<?xml version="1.0" encoding="utf-8"?>
<!-- Svg Vector Icons : http://www.onlinewebfonts.com/icon -->
<!DOCTYPE svg PUBLIC "-//W3C//DTD SVG 1.1//EN" "http://www.w3.org/Graphics/SVG/1.1/DTD/svg11.dtd">
<svg version="1.1" xmlns="http://www.w3.org/2000/svg" xmlns:xlink="http://www.w3.org/1999/xlink" x="0px" y="0px" viewBox="0 0 1000 1000" enable-background="new 0 0 1000 1000" xml:space="preserve">
<metadata> Svg Vector Icons : http://www.onlinewebfonts.com/icon </metadata>
<g><g transform="translate(0.000000,511.000000) scale(0.100000,-0.100000)"><path d="M3979.2,4110.4L3838.8,3970l390.5-390.5l387.9-387.9L4487,3064c-68.9-71.5-158.2-181.2-196.5-247.6l-68.9-122.5H2162.1H100V-674.8v-3368.7h4900h4900v3368.7V2694H7840.5H5778.4l-68.9,122.5c-38.3,68.9-127.6,178.6-201.6,247.6l-130.2,122.5l390.5,390.5l393,393l-148,145.5l-145.5,148l-433.9-433.9L5000,3395.8l-428.7,428.7c-234.8,234.8-433.9,426.2-439,426.2C4124.6,4250.8,4055.7,4187,3979.2,4110.4z M5084.2,2887.9c45.9-17.9,114.8-71.5,155.7-114.8l76.6-79.1H5000h-316.5l76.6,79.1c58.7,63.8,183.7,142.9,234.8,150.6C4997.4,2923.7,5038.3,2908.4,5084.2,2887.9z M6786.5,1849.2c268-61.2,538.5-252.7,689.1-487.5c183.8-283.3,181.2-265.4,173.5-2113.1l-7.7-1646.1l-79.1-165.9c-114.8-242.5-306.3-439-541.1-553.8l-194-97H4300.7H1771.6l-140.4,56.1c-290.9,120-533.4,365-643.1,658.4l-58.7,153.1v1686.9v1684.4l97,196.5c155.7,313.9,444.1,556.4,752.9,627.8C1917.1,1882.4,6643.6,1882.4,6786.5,1849.2z M8817.9,1833.9c168.4-56.1,370-257.7,426.2-426.2c94.4-275.6,33.2-538.5-171-745.2c-290.9-288.4-709.5-288.4-1000.4,0c-288.4,290.9-288.4,709.5,2.5,1000.4C8279.4,1867.1,8542.3,1928.4,8817.9,1833.9z M8863.9,213.4c142.9-43.4,359.8-255.2,395.6-390.5c89.3-324.1-56.2-645.7-347.1-765.6c-142.9-58.7-370-48.5-513,23c-148,74-216.9,148-283.3,296c-109.7,237.3-58.7,490,135.3,676.3C8435.1,233.8,8626.5,282.3,8863.9,213.4z M9287.5-1593.5v-204.2h-714.6h-714.6v204.2v204.2h714.6h714.6V-1593.5z M9287.5-2206v-204.2h-714.6h-714.6v204.2v204.2h714.6h714.6V-2206z M9287.5-2818.5v-204.2h-714.6h-714.6v204.2v204.2h714.6h714.6V-2818.5z"/><path d="M8458.1,1446c-114.8-51-178.7-153.1-178.7-285.8c0-107.2,12.8-135.3,84.2-206.7c71.5-71.5,99.5-84.2,209.3-84.2c109.7,0,137.8,12.8,209.3,84.2c71.5,71.5,84.2,99.5,84.2,209.3c0,107.2-12.8,137.8-79.1,206.7C8703.1,1453.7,8552.5,1486.9,8458.1,1446z"/><path d="M8595.9-192.4c-132.7-48.5-155.7-260.3-40.8-342c81.7-56.1,188.9-45.9,260.3,25.5c104.6,102.1,66.3,270.5-71.5,319c-40.8,12.8-76.6,25.5-79.1,23C8662.2-166.9,8631.6-179.6,8595.9-192.4z"/></g></g>
</svg>