<?xml version="1.0" encoding="utf-8"?>
<!-- Svg Vector Icons : http://www.onlinewebfonts.com/icon -->
<!DOCTYPE svg PUBLIC "-//W3C//DTD SVG 1.1//EN" "http://www.w3.org/Graphics/SVG/1.1/DTD/svg11.dtd">
<svg version="1.1" xmlns="http://www.w3.org/2000/svg" xmlns:xlink="http://www.w3.org/1999/xlink" x="0px" y="0px" viewBox="0 0 1000 1000" enable-background="new 0 0 1000 1000" xml:space="preserve">
<metadata> Svg Vector Icons : http://www.onlinewebfonts.com/icon </metadata>
<g><path d="M662.2,101V43H450c-57.3,0-80.8,121-87.1,160.4h-336l40.7,651.3h388.6l42-651.3H421c2.1-59.6,29-102.4,29-102.4H662.2z M310.9,382.2H81.3l-5.6-139.4h278.5L310.9,382.2z M444.5,382.2h-77.2l40.9-139.4h41.9L444.5,382.2z"/><path d="M848,450.4H596.8c-54.5,0-98.6,44.1-98.6,98.7v8.3h448.5v-8.3C946.7,494.6,902.6,450.4,848,450.4z"/><path d="M498.2,766.3c0,54.4,44.2,98.6,98.6,98.6H848c54.5,0,98.6-44.2,98.6-98.6v-33.2H498.2V766.3z"/><path d="M888.1,585.2c-17,0-32.3,7.3-43,18.9c-10.6-11.5-26-18.9-43.1-18.9c-15.3,0-29.3,6-39.7,15.6c-10.5-9.7-24.4-15.6-39.8-15.6c-17.2,0-32.7,7.4-43.3,19.3c-10.8-11.9-26.3-19.3-43.5-19.3c-17.2,0-32.8,7.4-43.5,19.4c-10.7-12-26.3-19.4-43.5-19.4c-32.3,0-58.6,26.2-58.6,58.6c0,32.3,26.3,58.5,58.6,58.5c17.2,0,32.8-7.5,43.5-19.3c10.6,11.8,26.2,19.3,43.4,19.3c17.2,0,32.7-7.3,43.5-19.2c10.6,11.8,26,19.2,43.3,19.2c15.5,0,29.3-6,39.8-15.7c10.4,9.7,24.4,15.7,39.7,15.7c17.1,0,32.4-7.3,43.1-18.9c10.7,11.6,26,18.9,43,18.9c32.4,0,58.6-26.2,58.6-58.5C946.7,611.4,920.5,585.2,888.1,585.2z"/><path d="M10,892.8C21.3,930,55.1,957,95.2,957h809.6c39.9,0,73.8-26.9,85.2-64.1H10z"/></g>
</svg>