<?xml version="1.0" encoding="utf-8"?>
<!-- Svg Vector Icons : http://www.onlinewebfonts.com/icon -->
<!DOCTYPE svg PUBLIC "-//W3C//DTD SVG 1.1//EN" "http://www.w3.org/Graphics/SVG/1.1/DTD/svg11.dtd">
<svg version="1.1" xmlns="http://www.w3.org/2000/svg" xmlns:xlink="http://www.w3.org/1999/xlink" x="0px" y="0px" viewBox="0 0 1000 1000" enable-background="new 0 0 1000 1000" xml:space="preserve">
<metadata> Svg Vector Icons : http://www.onlinewebfonts.com/icon </metadata>
<g><g><path d="M160,10l40.5,832l59.9-2.9L223,70h553.9l-5.8,114l-17.6,0l5.2-101.5L261.1,219.3L301.1,990l417.8-155.2l6.3-94.5h17.7l-5,98.7l59.9,3L840,10H160z M340.1,612.1c-11.5,0-20.9-11.8-20.9-26.3c0-14.5,9.4-26.3,20.9-26.3s20.9,11.8,20.9,26.3C361,600.3,351.6,612.1,340.1,612.1z M729.1,642.9l19.4-361.5l17.7,0l-18.4,361.5L729.1,642.9z"/></g><g></g><g></g><g></g><g></g><g></g><g></g><g></g><g></g><g></g><g></g><g></g><g></g><g></g><g></g><g></g></g>
</svg>