<?xml version="1.0" encoding="utf-8"?>
<!-- Svg Vector Icons : http://www.onlinewebfonts.com/icon -->
<!DOCTYPE svg PUBLIC "-//W3C//DTD SVG 1.1//EN" "http://www.w3.org/Graphics/SVG/1.1/DTD/svg11.dtd">
<svg version="1.1" xmlns="http://www.w3.org/2000/svg" xmlns:xlink="http://www.w3.org/1999/xlink" x="0px" y="0px" viewBox="0 0 1000 1000" enable-background="new 0 0 1000 1000" xml:space="preserve">
<metadata> Svg Vector Icons : http://www.onlinewebfonts.com/icon </metadata>
<g><g transform="translate(0.000000,511.000000) scale(0.100000,-0.100000)"><path d="M281.9,4060.6c-30.6-15.3-72.7-44-93.8-61.2c-91.9-82.3-88,90-88-3893.2V-3632l44-76.6c23-42.1,76.6-95.7,118.7-118.7l76.6-44l4679.9,5.7l4679.9,3.8l65.1,45.9c34.5,24.9,80.4,80.4,99.5,124.4c34.5,76.6,36.4,212.5,36.4,3810.9c0,3655.8-1.9,3734.3-38.3,3814.7c-28.7,63.2-55.5,90-118.7,118.7c-80.4,36.4-168.4,38.3-4743,38.3C810.1,4091.2,333.5,4087.4,281.9,4060.6z M8646.3,3325.6l-153.1-153.1H7013.6c-1445.1,0-1481.5,0-1554.2-38.3c-49.8-24.9-90-65.1-114.8-114.8c-38.3-74.6-38.3-105.3-38.3-2903.6c0-2760.1,1.9-2830.9,38.3-2911.3c28.7-63.2,55.5-90,118.7-118.7c78.5-36.4,137.8-38.3,1565.7-38.3h1483.4l153.1-153.1l153.1-153.1H5000H1181.5l153.1,153.1l153.1,153.1h1483.4c1427.9,0,1487.2,1.9,1565.7,38.3c63.2,28.7,90,55.5,118.7,118.7c36.4,80.4,38.3,149.3,38.3,2905.5c0,2756.2-1.9,2825.2-38.3,2905.5c-28.7,63.2-55.5,90-118.7,118.7c-78.5,36.4-137.8,38.3-1565.7,38.3H1487.7l-153.1,153.1l-153.1,153.1h3809h3809L8646.3,3325.6z M1018.8,110v-2670.1l-153.1-153.1l-153.1-153.1V110v2976.4l153.1-153.1l153.1-153.1V110z M9287.5,125.3v-2953.4L9134.4-2675l-153.1,153.1v2651v2651l147.4,147.4c82.3,82.3,151.2,149.3,153.1,149.3C9285.6,3076.8,9287.5,1748.4,9287.5,125.3z M2550,1488.1V416.3h-459.4h-459.4v1071.9V2560h459.4H2550V1488.1z M4081.3,1488.1V416.3h-459.4h-459.4v1071.9V2560h459.4h459.4V1488.1z M6837.5,1488.1V416.3h-459.4h-459.4v1071.9V2560h459.4h459.4V1488.1z M8368.7,1488.1V416.3h-459.4H7450v1071.9V2560h459.4h459.4V1488.1z M2550-1268.1V-2340h-459.4h-459.4v1071.9v1071.9h459.4H2550V-1268.1z M4081.3-1268.1V-2340h-459.4h-459.4v1071.9v1071.9h459.4h459.4V-1268.1z M6837.5-1268.1V-2340h-459.4h-459.4v1071.9v1071.9h459.4h459.4V-1268.1z M8368.7-1268.1V-2340h-459.4H7450v1071.9v1071.9h459.4h459.4V-1268.1z"/></g></g>
</svg>