<?xml version="1.0" encoding="utf-8"?>
<!-- Svg Vector Icons : http://www.onlinewebfonts.com/icon -->
<!DOCTYPE svg PUBLIC "-//W3C//DTD SVG 1.1//EN" "http://www.w3.org/Graphics/SVG/1.1/DTD/svg11.dtd">
<svg version="1.1" xmlns="http://www.w3.org/2000/svg" xmlns:xlink="http://www.w3.org/1999/xlink" x="0px" y="0px" viewBox="0 0 1000 1000" enable-background="new 0 0 1000 1000" xml:space="preserve">
<metadata> Svg Vector Icons : http://www.onlinewebfonts.com/icon </metadata>
<g><path d="M500,272.3c-125.8,0-227.7,101.9-227.7,227.7c0,125.7,101.9,227.7,227.7,227.7c125.8,0,227.7-102,227.7-227.7C727.7,374.2,625.8,272.3,500,272.3z M500,667.9c-92.7,0-167.9-75.2-167.9-167.9c0-92.7,75.2-167.9,167.9-167.9c92.7,0,167.9,75.2,167.9,167.9C667.9,592.7,592.7,667.9,500,667.9z"/><path d="M937.3,373H878c-5.6-18.1-12.2-30.6-19.9-46.6l41.5-40c21.3-21.3,21.3-55,0-76.3L796.9,107.8c-21.3-21.3-55.7-21.1-77,0.2l-40.4,39.6c-16.6-8.5-34.4-15.8-52.5-22V70.4c0-30.1-22.6-60.4-52.7-60.4H429.2C399.1,10,373,40.4,373,70.4v52.9c-18.1,6.1-35.7,13.4-53,22l-36.8-37.2c-21.3-21.3-55.5-21.3-76.8,0L103.9,210.8c-21.3,21.3-21.2,55.7,0.1,77l37.1,34.1c-8.6,17.3-16,32.9-22.1,51H66.2C36.2,373,10,403.3,10,433.4v145.2c0,30.1,26.2,48.4,56.2,48.4H121c6.2,18.1,13.6,38.3,22.2,55L104,722.6c-21.3,21.3-21.3,56.5,0,77.8l102.7,103c21.3,21.2,55.7,21.5,77,0.2l40.3-41.1c16.1,7.8,30.9,14.5,49,20.1v59c0,30.1,26.2,48.4,56.2,48.4h145.2c30.1,0,52.7-18.4,52.7-48.4v-61.2c18.2-5.7,33.2-12.4,48.5-20l43.9,43.5c21.3,21.3,56,21.3,77.2,0l102.8-102.7c21.3-21.3,21.3-55.7,0.1-77L856,677.6c7.6-15.3,14.3-32.4,19.9-50.5h61.4c30.1,0,52.7-18.4,52.7-48.4V433.4C990,403.3,967.4,373,937.3,373L937.3,373z M918.6,572.6h-77.8c-7.8,36.3-23.5,80.5-45.6,116.3l52.5,51.3c7.1,7.1,7.1,18,0,25.1l-77,76.7c-7.1,7.1-18.6,6.9-25.7-0.2l-50.7-50.1c-36.1,24.4-85.5,42.1-121.8,51.4v69.5c0,10-6.9,22.9-17,22.9H446.7c-10,0-19.3-12.9-19.3-22.9v-69.8c-36.3-9.5-84.1-27.3-120.1-51.7l-50.3,50.6c-7.1,7.1-18.4,7.1-25.5,0l-76.9-77c-7.1-7.1-7.1-18.6,0-25.7l53.3-50.9c-21.8-35.6-37.4-79.3-45.1-115.6h-79c-10,0-19.3-12.9-19.3-22.9V440.8c0-10,9.3-13.4,19.3-13.4h83.8c9.9-36.3,26.3-79.2,48.6-112.2l-61.4-62.6c-7.1-7.1-7.1-19.2,0-26.3l77-77.3c7.1-7.1,18.6-7.2,25.7-0.1l63.3,63.8c32.6-20.1,70.5-35.2,106.8-43.6V64.4h145.2v104.4c36.3,8.2,75.6,23.2,108.4,43.3l63.7-63.4c7.1-7.1,18.7-7.1,25.8,0l77.1,77c7.1,7.1,7.1,18.6,0,25.7l-60.7,63.1c22.6,33.1,39.2,76.6,49.1,112.9h82.6c10,0,17,3.4,17,13.4v108.9h0C935.6,559.7,928.6,572.6,918.6,572.6L918.6,572.6z"/></g>
</svg>