<?xml version="1.0" encoding="utf-8"?>
<!-- Svg Vector Icons : http://www.onlinewebfonts.com/icon -->
<!DOCTYPE svg PUBLIC "-//W3C//DTD SVG 1.1//EN" "http://www.w3.org/Graphics/SVG/1.1/DTD/svg11.dtd">
<svg version="1.1" xmlns="http://www.w3.org/2000/svg" xmlns:xlink="http://www.w3.org/1999/xlink" x="0px" y="0px" viewBox="0 0 1000 1000" enable-background="new 0 0 1000 1000" xml:space="preserve">
<metadata> Svg Vector Icons : http://www.onlinewebfonts.com/icon </metadata>
<g><g transform="translate(0.000000,511.000000) scale(0.100000,-0.100000)"><path d="M126.6,3774.4c-35.4-35.4-35.4-7293.4,0-7328.9c14.6-14.6,41.7-25,62.5-25s273.1,116.7,558.6,260.6c285.6,143.8,529.4,260.6,542,260.6c10.4,0,20.8-39.6,20.8-89.6c0-50,10.4-100,25-114.6c35.4-35.4,7293.5-35.4,7328.9,0c14.6,14.6,25,64.6,25,114.6c0,50,10.4,89.6,20.9,89.6c12.5,0,256.4-116.7,542-260.6c285.6-143.8,537.8-260.6,558.6-260.6c20.9,0,47.9,10.4,62.5,25c35.4,35.4,35.4,7293.5,0,7328.9c-14.6,14.6-41.7,25-62.5,25c-20.8,0-273-116.7-558.6-260.6c-285.6-143.8-531.5-260.6-544-260.6c-16.7,0-20.8,25-12.5,70.9c6.3,45.9,0,85.5-18.7,114.6l-31.3,43.8H5002.1c-2803.6,0-3647.8-6.3-3666.5-25c-14.6-14.6-25-64.6-25-114.6c0-50-10.4-89.6-20.8-89.6c-12.5,0-256.4,116.7-542,260.6c-285.6,143.8-537.8,260.6-558.6,260.6S141.2,3789,126.6,3774.4z M1102.1,3153.3l792.1-396V110v-2647.2l-792.1-396.1c-435.7-216.8-796.3-396-802.5-396S289.2-1780.6,289.2,110c0,1892.7,4.2,3439.3,10.4,3439.3S666.4,3370.1,1102.1,3153.3z M9710.8,110c0-1890.6-4.2-3439.3-10.4-3439.3s-366.9,179.2-802.5,396l-792.1,396.1V110v2647.2l787.9,394c431.5,218.9,792.1,396,802.5,396C9704.6,3549.3,9710.8,2002.7,9710.8,110z M8522.7,3263.8c0-33.3-8.4-68.8-16.7-83.4c-8.3-12.5-133.4-81.3-275.2-150.1l-260.5-127.1H4995.8H2021.3l-273.1,137.6c-266.8,135.5-271,137.6-271,208.4v70.9H5000h3522.7V3263.8z M3305.4,2550.9c58.4-400.2,296-804.6,627.4-1067.2c512.8-408.6,1192.3-491.9,1773.9-216.8c427.3,204.3,750.4,560.7,902.6,1000.5c33.3,95.9,64.6,237.6,72.9,312.7l12.5,135.5H7295h602.4V110v-2605.6H5000H2102.6V110v2605.6h589.9h589.9L3305.4,2550.9z M6507.1,2617.6c-37.5-281.4-164.7-579.5-325.2-775.4c-250.1-300.2-608.7-494-1006.8-544c-206.3-25-371-12.5-589.9,43.8c-406.5,108.4-762.9,398.1-946.3,769.2c-93.8,191.8-160.5,406.5-160.5,527.4v56.3h1519.5h1521.7L6507.1,2617.6z M8249.6-2818.6c275.1-135.5,275.1-135.5,268.9-204.3l-6.3-66.7H5000H1487.7l-6.3,66.7c-6.3,68.8-6.3,68.8,268.9,204.3l275.2,135.5H5000h2974.5L8249.6-2818.6z"/><path d="M585.2,3107.4c-35.4-35.4-35.4-2791.1,0-2826.5c18.7-18.8,162.6-25,521.1-25c466.9,0,496.1,2.1,516.9,39.6c22.9,45.9,31.3,2265.8,8.3,2326.2c-14.6,33.4-942.2,510.7-994.3,510.7C622.7,3132.4,599.7,3122,585.2,3107.4z M1102.1,2705.1l354.4-177.2V1485.7V443.5h-364.8H726.9v1219.4c0,671.2,4.2,1219.4,10.4,1219.4S908.2,2803.1,1102.1,2705.1z"/><path d="M583.1-44.3c-16.7-18.8-20.8-410.6-18.7-1429.9c6.3-1307,8.3-1404.9,41.7-1425.8c31.3-18.8,125.1,20.8,519,216.8c264.7,131.3,489.8,256.4,500.3,275.2c10.4,18.8,18.8,527.4,18.8,1181.9c0,1013-4.2,1148.5-33.4,1177.7c-27.1,29.2-104.2,33.3-516.9,33.3C708.1-15.1,601.8-21.3,583.1-44.3z M1456.4-1255.3V-2308l-354.4-177.2c-193.8-98-358.5-177.2-364.8-177.2s-10.4,554.5-10.4,1229.8v1229.8h364.8h364.8V-1255.3z"/><path d="M8866.6,2909.4c-262.6-131.3-485.7-250.1-494-264.7c-25-37.5-20.8-2301.2,4.2-2349.2c20.8-37.5,50-39.6,519-39.6c385.6,0,502.3,6.3,521.1,27.1c14.6,18.8,22.9,444,22.9,1421.6c2.1,1304.9,0,1396.6-33.3,1421.6c-20.9,14.6-41.7,27.1-48,25C9352.3,3151.2,9131.4,3042.8,8866.6,2909.4z M9273.1,1673.3V443.5h-364.8h-364.8v1052.6v1052.6l350.2,175.1c191.8,98,354.4,177.2,364.8,177.2C9266.9,2903.2,9273.1,2350.8,9273.1,1673.3z"/><path d="M8389.3-48.4c-29.2-29.2-33.3-164.7-33.3-1177.7c0-654.5,8.3-1163.1,18.8-1181.9c10.4-18.8,235.5-143.8,500.3-275.2c391.9-195.9,487.8-235.5,519-216.8c33.4,20.8,35.4,120.9,45.9,1407c8.3,1098.5,4.2,1394.5-16.7,1432c-25,45.9-29.2,45.9-514.9,45.9C8493.5-15.1,8416.4-19.2,8389.3-48.4z M9273.1-1432.5c0-675.4-4.2-1229.8-10.4-1229.8s-170.9,79.2-364.8,177.2L8543.6-2308v1052.7v1052.6h364.8h364.8V-1432.5z"/><path d="M2707.1,1971.4c-154.3-62.5-287.7-125.1-296-139.6c-31.3-45.9-16.7-114.6,27.1-137.6c35.4-20.8,89.6-6.2,316.8,85.5c281.4,110.5,356.4,160.5,333.5,223c-12.5,35.4-66.7,87.5-87.5,87.5C2994.8,2088.1,2861.3,2036,2707.1,1971.4z"/><path d="M6944.8,2067.3c-35.4-12.5-47.9-33.4-47.9-79.2c0-73,25-89.6,379.4-229.3c185.5-75,229.3-85.5,266.8-64.6c33.3,18.8,41.7,39.6,37.5,87.6c-6.3,62.5-18.7,70.9-214.7,152.2C7009.4,2081.9,6994.8,2086,6944.8,2067.3z"/><path d="M3211.6,1166.8c-208.4-210.5-243.9-266.8-187.6-323.1c56.3-56.3,112.5-20.8,323.1,187.6c212.6,210.5,246,268.9,189.7,325.2C3480.4,1412.8,3422.1,1379.4,3211.6,1166.8z"/><path d="M6463.3,1356.5c-56.3-56.3-22.9-114.6,189.7-325.2c210.5-208.4,266.8-243.9,323.1-187.6c56.3,56.3,22.9,114.6-189.7,325.2C6575.8,1377.3,6519.6,1412.8,6463.3,1356.5z"/><path d="M4128.7,887.5c-25-20.8-91.7-158.4-150.1-306.4c-89.6-223-104.2-279.3-85.5-318.9c29.2-62.5,116.7-64.6,156.3,0c54.2,81.3,221,510.7,221,564.9c0,31.3-16.7,62.5-39.6,75C4178.7,929.2,4178.7,929.2,4128.7,887.5z"/><path d="M5767.1,900c-20.8-10.4-37.5-43.8-37.5-73c0-54.2,166.8-483.6,220.9-564.9c41.7-64.6,127.2-62.5,156.3,0c18.8,41.7,4.2,93.8-85.5,318.9C5927.6,816.6,5860.9,925,5815,922.9C5808.8,922.9,5785.8,912.5,5767.1,900z"/><path d="M4920.8,710.3c-16.7-16.7-25-123-25-339.8c0-329.3,8.3-364.8,93.8-364.8c85.5,0,93.8,35.4,93.8,364.8s-8.3,364.8-93.8,364.8C4964.6,735.3,4935.4,724.9,4920.8,710.3z"/></g></g>
</svg>