<?xml version="1.0" encoding="utf-8"?>
<!-- Svg Vector Icons : http://www.onlinewebfonts.com/icon -->
<!DOCTYPE svg PUBLIC "-//W3C//DTD SVG 1.1//EN" "http://www.w3.org/Graphics/SVG/1.1/DTD/svg11.dtd">
<svg version="1.1" xmlns="http://www.w3.org/2000/svg" xmlns:xlink="http://www.w3.org/1999/xlink" x="0px" y="0px" viewBox="0 0 1000 1000" enable-background="new 0 0 1000 1000" xml:space="preserve">
<metadata> Svg Vector Icons : http://www.onlinewebfonts.com/icon </metadata>
<g><path d="M944.4,193.7H423.1l0.7-61.3c0-30-31.3-61.3-61.3-61.3H86.9c-31.9,0-76.9,35.5-76.9,69.5v122.5v86v525.9c0,30.5,46.3,53.8,76.2,53.8h858.1c30.7,0,45.6-22.7,45.6-53.8V263.3C990,232.3,975.4,193.7,944.4,193.7z M912.7,858.7h-824V259.3l824,1.1V858.7z"/><path d="M552.5,633.3V561c28.9-17.8,48.4-49.4,48.4-85.8c0-55.7-45.1-100.9-100.9-100.9c-55.8,0-100.9,45.2-100.9,100.9c0,41.7,25.3,77.4,61.3,92.8v65.6c-33.2,3.4-126.5,17.6-129.8,70.9c0,0,1.5,39.7,165.4,34.6c146-4.5,173.4-23.9,173.4-34.6C669.4,704.5,666.3,650.6,552.5,633.3z"/></g>
</svg>