<?xml version="1.0" encoding="utf-8"?>
<!-- Svg Vector Icons : http://www.onlinewebfonts.com/icon -->
<!DOCTYPE svg PUBLIC "-//W3C//DTD SVG 1.1//EN" "http://www.w3.org/Graphics/SVG/1.1/DTD/svg11.dtd">
<svg version="1.1" xmlns="http://www.w3.org/2000/svg" xmlns:xlink="http://www.w3.org/1999/xlink" x="0px" y="0px" viewBox="0 0 1000 1000" enable-background="new 0 0 1000 1000" xml:space="preserve">
<metadata> Svg Vector Icons : http://www.onlinewebfonts.com/icon </metadata>
<g><path d="M957.6,676.2c0.2-5.8-2.1-11.4-6.3-15.4L747.9,469.4c-4.1-3.8-9.5-5.7-15.1-5.4c-5.5,0.4-10.7,3.1-14.2,7.4c-10.5,13.2-47,50.8-76,50.8c-7.9,0-14.6-2.8-21.1-9C570.3,464.3,462.3,354,461.7,353.4c-1.4-1.6-33.7-40.1,25.9-117.3c5.7-7.4,5.5-17.8-0.4-25L326.4,17.3c-6.2-7.6-17.1-9.5-25.6-4.4c-4.3,2.5-104.7,63.1-123.3,173.9c-12.5,74.8,15.3,152.9,82.8,232.1c0.3,0.4,0.7,0.8,1.1,1.2l258.2,258.2c3.6,3.9,88.1,96,218.8,96c11.3,0,22.6-0.9,33.9-2.3c4.2,21.7,5.5,70.6-48.4,124.5c-23.2,23.2-50.7,27.5-69.9,27c-35.4-1-73.4-19.2-98.8-47.6c-0.3-0.3-0.6-0.6-1-1L262.7,575.6c-0.9-0.9-1.9-1.8-2.9-2.6c-30.9-25-106.7-55.7-173.1,6.7c-65.1,61.2-44.7,140-24.8,173.2c1.4,2.4,3.1,4.5,5,6.4l118.5,118.5c13,13,34.1,13,47.1,0c13-13,13-34.1,0-47.1L117.4,715.5c-5.7-11.5-22.2-52.5,14.9-87.4c37-34.8,74.5-11.5,84.3-4.4l289.3,297c37.9,41.9,92.4,67.7,146.1,69.2c1.7,0,3.3,0.1,5,0.1c44,0,83.3-16,113.8-46.6c76.3-76.3,73.7-150.8,65.9-187.2c38.2-13.8,76-35.4,113.1-65.2c4.5-3.6,7.2-9,7.5-14.8l0,0H957.6z"/></g>
</svg>