<?xml version="1.0" encoding="utf-8"?>
<!-- Svg Vector Icons : http://www.onlinewebfonts.com/icon -->
<!DOCTYPE svg PUBLIC "-//W3C//DTD SVG 1.1//EN" "http://www.w3.org/Graphics/SVG/1.1/DTD/svg11.dtd">
<svg version="1.1" xmlns="http://www.w3.org/2000/svg" xmlns:xlink="http://www.w3.org/1999/xlink" x="0px" y="0px" viewBox="0 0 1000 1000" enable-background="new 0 0 1000 1000" xml:space="preserve">
<metadata> Svg Vector Icons : http://www.onlinewebfonts.com/icon </metadata>
<g><path d="M393.4,634.6c-0.8-0.8-106.8-181.1-106.8-183.4c-21.7-48.8-39.5-98.3-3.1-120L131,69.5c-39.5,30.2-151.7,192.7,58.1,562c220.6,389.3,430.4,373.1,472.2,346.8L513.4,722.8C477.8,743.7,448.4,709.7,393.4,634.6z M764.2,879.2L648.1,680.2c-9.3-15.5-28.6-20.9-44.1-11.6l-71.2,42.6l149.4,256.2l71.2-42.6l0,0C768.9,914.8,772.7,894.6,764.2,879.2L764.2,879.2z M374.9,276.2L374.9,276.2c16.3-10.1,20.1-30.2,11.6-45.7l0,0L267.3,26.2c-9.3-15.5-29.4-20.9-44.1-11.6l-72,43.3l152.5,261.6C303.7,318.8,374.9,276.2,374.9,276.2z M623.3,205.7l-21.7,68.1c39.5,3.9,76.6,26.3,96.8,64.2c20.1,37.9,17.8,81.3-1.5,116.1l67.3,20.9c24-52.6,24.8-114.6-3.9-169.5C731.7,249.9,679.8,215.8,623.3,205.7z M895,233.6C847,142.3,763.4,81.9,669,60.2l-20.1,64.2C724,140,792.1,187.9,830.8,260.7c39.5,75.9,39.5,161.8,6.2,234.5l73.5,22.4C945.3,428.7,943.8,325,895,233.6z"/></g>
</svg>