<?xml version="1.0" encoding="utf-8"?>
<!-- Svg Vector Icons : http://www.onlinewebfonts.com/icon -->
<!DOCTYPE svg PUBLIC "-//W3C//DTD SVG 1.1//EN" "http://www.w3.org/Graphics/SVG/1.1/DTD/svg11.dtd">
<svg version="1.1" xmlns="http://www.w3.org/2000/svg" xmlns:xlink="http://www.w3.org/1999/xlink" x="0px" y="0px" viewBox="0 0 1000 1000" enable-background="new 0 0 1000 1000" xml:space="preserve">
<metadata> Svg Vector Icons : http://www.onlinewebfonts.com/icon </metadata>
<g><path d="M968.4,608.2l-75-115c1.4-8.9,2.1-18,2.1-27.3c0-95.1-75.2-172.1-168-172.1c-49.4,0-93.7,21.8-124.5,56.4H508c3.2-15.9,2.1-32.6-4.3-47.7c-17.8-41.6,4.5-99.3,56.1-88.8c15,3.1,21.5-20.6,6.4-23.7c-46.2-9.4-85.7,21.2-92.8,68.6c-1.7,11.3-1,22.3,1.2,33.5c2.7,14.6,10.9,26.3,11.3,41.6c0.2,5.4-0.5,11-2,16.6h-86.4c-30.7-34.7-75.1-56.4-124.4-56.4c-92.9,0-168.1,77.1-168.1,172.1c0,9,0.8,17.9,2,26.6L31.6,608.2C-7.6,668.2,8.1,749.5,66.7,789.6c58.7,40.2,138,24.1,177.1-36l80.9-123.9c28.3-9.4,53.3-26.1,72.8-48.2H603c19.3,21.8,44.1,38.5,72.1,47.9l81,124.1c39.2,60.1,118.6,76.2,177.2,36C991.9,749.5,1007.7,668.2,968.4,608.2z M339.8,473.8h-52.3v53.5h-41v-53.5h-52.2v-42h52.2v-53.5h41v53.5h52.3V473.8z M466.3,520.8h-35.9v-17.5h35.9V520.8z M514.2,520.8h-35.8v-17.5h35.8V520.8z M562.1,520.8h-36v-17.5h36V520.8z M667.6,479.1c-14.1,0-25.6-11.8-25.6-26.3c0-14.5,11.5-26.3,25.6-26.3c14.2,0,25.6,11.8,25.6,26.3C693.3,467.4,681.8,479.1,667.6,479.1z M741.2,552.7c-14,0-25.6-11.8-25.6-26.3c0-14.6,11.6-26.3,25.6-26.3c14.2,0,25.7,11.7,25.7,26.3C766.9,541,755.4,552.7,741.2,552.7z M741.2,405.5c-14,0-25.6-11.8-25.6-26.3c0-14.5,11.6-26.3,25.6-26.3c14.2,0,25.7,11.8,25.7,26.3C766.9,393.7,755.4,405.5,741.2,405.5z M811.4,479.1c-14.1,0-25.6-11.8-25.6-26.3c0-14.5,11.5-26.3,25.6-26.3c14.2,0,25.7,11.8,25.7,26.3C837,467.4,825.5,479.1,811.4,479.1z"/><path d="M601.8,336.8c0,0,33-57.2,131.1-57.2c98.1,0,145.9,84.1,145.9,84.1S851.6,236.3,734,236.3C616.6,236.3,601.8,336.8,601.8,336.8z"/><path d="M401,336.8c0,0-33.1-57.2-131.2-57.2c-98.1,0-145.9,84.1-145.9,84.1s27.4-127.4,144.8-127.4C386.2,236.3,401,336.8,401,336.8z"/></g>
</svg>