<?xml version="1.0" encoding="utf-8"?>
<!-- Svg Vector Icons : http://www.onlinewebfonts.com/icon -->
<!DOCTYPE svg PUBLIC "-//W3C//DTD SVG 1.1//EN" "http://www.w3.org/Graphics/SVG/1.1/DTD/svg11.dtd">
<svg version="1.1" xmlns="http://www.w3.org/2000/svg" xmlns:xlink="http://www.w3.org/1999/xlink" x="0px" y="0px" viewBox="0 0 1000 1000" enable-background="new 0 0 1000 1000" xml:space="preserve">
<metadata> Svg Vector Icons : http://www.onlinewebfonts.com/icon </metadata>
<g><path d="M738.5,990H616.3c-13.5,0-24.4-10.9-24.4-24.4V751.4c0-27.1-22-49.1-49.1-49.1h-85.7c-27,0-49,22-49,49.1v214.2c0,13.5-10.9,24.4-24.4,24.4H261c-54,0-97.9-43.9-97.9-97.9c0,0,0-293.9,0-306.7c0-21,1.2-25.5-26.6-25.5c-19.2,0-46.9,0-46.9,0c-6.5,0-12.7-2.6-17.3-7.2C32.6,513,32.4,435.1,71.9,395.7L427.8,39.8C447,20.6,472.5,10,499.7,10c27.2,0,52.8,10.6,72,29.8l68.9,68.9V98.4c0-47.2,38.4-85.6,85.6-85.6c47.2,0,85.6,38.4,85.6,85.6V254c12.4,18.2,66.8,84.1,116.5,142.4c39,40,39.1,117.1-0.1,156.4c-4.6,4.6-10.8,7.2-17.3,7.2c0,0-22.9,0-48.1,0s-26.5,5.7-26.5,26c0,17.5,0,306.2,0,306.2C836.3,946.1,792.5,990,738.5,990z M655.4,941.2c6.3,0,83.1,0,83.1,0c27.1,0,49.1-22,49.1-49.1V535.6c0-13.5,10.9-24.4,24.4-24.4h81c27.6-11.2,18.8-62.5,0.2-81.1c-0.5-0.5-0.9-0.9-1.3-1.4c-0.3-0.4-31.2-36.6-61.7-73.4c-18-21.7-32.3-39.4-42.7-52.7c-20.5-26.2-24.4-33-24.4-42.6V98.4c0-20.3-16.5-36.8-36.8-36.8c-20.3,0-36.9,16.5-36.9,36.8v69.2c0,9.9-5.9,18.8-15.1,22.5c-9.1,3.8-19.6,1.7-26.6-5.3L537.2,74.3c-10-10-23.3-15.5-37.5-15.5c-14.2,0-27.5,5.5-37.5,15.5L106.3,430.1c-18.4,18.4-29.4,67.6,1.8,81.1h79.4c13.5,0,24.4,10.9,24.4,24.4v356.6c0,27.1,22,49.1,49.1,49.1c0,0,68.1,0,81.5,0c13.4,0,16.8-7.2,16.8-16.2c0-7.1,0-173.7,0-173.7c0-54,43.9-97.9,97.8-97.9h85.7c54,0,97.9,43.9,97.9,97.9c0,0,0,156.8,0,174.1C640.7,937.5,649.1,941.2,655.4,941.2z"/></g>
</svg>