<?xml version="1.0" encoding="utf-8"?>
<!-- Svg Vector Icons : http://www.onlinewebfonts.com/icon -->
<!DOCTYPE svg PUBLIC "-//W3C//DTD SVG 1.1//EN" "http://www.w3.org/Graphics/SVG/1.1/DTD/svg11.dtd">
<svg version="1.1" xmlns="http://www.w3.org/2000/svg" xmlns:xlink="http://www.w3.org/1999/xlink" x="0px" y="0px" viewBox="0 0 1000 1000" enable-background="new 0 0 1000 1000" xml:space="preserve">
<metadata> Svg Vector Icons : http://www.onlinewebfonts.com/icon </metadata>
<g><g><path d="M10,52.6v894.9h67.4V783h22.9v163.4l279.6-61.2V205.9l-279.6-61.2v105.9H77.4V120h845.2v130.7h-24.8V144.7l-279.6,61.2v679.4l279.6,61.2V783h24.8v164.4H990V52.6H10z M333,501.6c10,0,18.1,9.5,18.1,21.2c0,11.7-8.1,21.2-18.1,21.2c-10,0-18.1-9.5-18.1-21.2C314.9,511.1,323,501.6,333,501.6z M100.3,343.9v346H77.4v-346H100.3z M665,544c-10,0-18.1-9.5-18.1-21.2s8.1-21.2,18.1-21.2c10,0,18.1,9.5,18.1,21.2S675,544,665,544z M922.6,689.8h-24.8v-346h24.8V689.8z"/></g><g></g><g></g><g></g><g></g><g></g><g></g><g></g><g></g><g></g><g></g><g></g><g></g><g></g><g></g><g></g></g>
</svg>