<?xml version="1.0" encoding="utf-8"?>
<!-- Svg Vector Icons : http://www.onlinewebfonts.com/icon -->
<!DOCTYPE svg PUBLIC "-//W3C//DTD SVG 1.1//EN" "http://www.w3.org/Graphics/SVG/1.1/DTD/svg11.dtd">
<svg version="1.1" xmlns="http://www.w3.org/2000/svg" xmlns:xlink="http://www.w3.org/1999/xlink" x="0px" y="0px" viewBox="0 0 1000 1000" enable-background="new 0 0 1000 1000" xml:space="preserve">
<metadata> Svg Vector Icons : http://www.onlinewebfonts.com/icon </metadata>
<g><g><path d="M10,52.6v894.9h67.4V783h19.8v164.4h389.6V140.4H97.2v110.3H77.4V120h845.2v130.7h-19.8V140.4H513.2v807.1h389.6V783h19.8v164.4H990V52.6H10z M402.6,491.7c13.9,0,25.2,11.3,25.2,25.2S416.5,542,402.6,542c-13.9,0-25.2-11.3-25.2-25.2S388.7,491.7,402.6,491.7z M97.2,343.9v346H77.4v-346H97.2z M597.4,542c-13.9,0-25.2-11.3-25.2-25.2c0-13.9,11.3-25.2,25.2-25.2c13.9,0,25.2,11.3,25.2,25.2C622.6,530.8,611.3,542,597.4,542z M902.8,689.8v-346h19.8v346H902.8z"/></g><g></g><g></g><g></g><g></g><g></g><g></g><g></g><g></g><g></g><g></g><g></g><g></g><g></g><g></g><g></g></g>
</svg>