<?xml version="1.0" encoding="utf-8"?>
<!-- Svg Vector Icons : http://www.onlinewebfonts.com/icon -->
<!DOCTYPE svg PUBLIC "-//W3C//DTD SVG 1.1//EN" "http://www.w3.org/Graphics/SVG/1.1/DTD/svg11.dtd">
<svg version="1.1" xmlns="http://www.w3.org/2000/svg" xmlns:xlink="http://www.w3.org/1999/xlink" x="0px" y="0px" viewBox="0 0 1000 1000" enable-background="new 0 0 1000 1000" xml:space="preserve">
<metadata> Svg Vector Icons : http://www.onlinewebfonts.com/icon </metadata>
<g><path d="M940.7,398.3l-93.9-18.8c-4.7-13.6-10.3-26.7-16.4-39.5l53.1-79.7c16.2-24.3,13-56.6-7.7-77.3L817,124.1c-27.6-27.6-62.2-17.7-77.3-7.7L660,169.6c-12.8-6.2-25.9-11.7-39.5-16.4l-18.8-93.9C596,30.6,570.8,10,541.7,10h-83.3c-29.2,0-54.3,20.6-60,49.3l-18.8,93.9c-13.6,4.7-26.7,10.3-39.5,16.4l-79.7-53.1c-15.1-10-49.7-20-77.3,7.7L124.1,183c-20.6,20.6-23.9,53-7.7,77.3l53.1,79.7c-6.2,12.8-11.7,25.9-16.4,39.5l-93.9,18.8C30.6,404,10,429.2,10,458.3v83.3c0,29.2,20.6,54.3,49.3,60l93.9,18.8c4.7,13.6,10.3,26.7,16.4,39.5l-53.1,79.7c-16.2,24.3-13,56.6,7.7,77.3l58.9,58.9c11.8,11.8,27.5,17.9,43.3,17.9c11.8,0,23.6-3.4,33.9-10.3l79.7-53.1c12.8,6.2,25.9,11.7,39.5,16.4l18.8,93.9c5.7,28.6,30.9,49.3,60,49.3h83.3c29.2,0,54.3-20.6,60.1-49.3l18.8-93.9c13.6-4.7,26.7-10.3,39.5-16.4l79.7,53.1c15.1,10,49.7,19.9,77.3-7.7l58.9-58.9c20.6-20.6,23.9-53,7.7-77.3L830.4,660c6.2-12.8,11.7-25.9,16.4-39.5l93.9-18.8c28.7-5.7,49.3-30.9,49.3-60v-83.3C990,429.2,969.4,404,940.7,398.3z M498.6,730.4c-128.6,0-232.8-104.2-232.8-232.8s104.2-232.8,232.8-232.8c128.6,0,232.8,104.2,232.8,232.8S627.2,730.4,498.6,730.4z"/><path d="M377.5,500c0,67.7,54.9,122.5,122.5,122.5c67.7,0,122.5-54.9,122.5-122.5c0-67.7-54.9-122.5-122.5-122.5C432.3,377.5,377.5,432.3,377.5,500L377.5,500z"/></g>
</svg>