<?xml version="1.0" encoding="utf-8"?>
<!-- Svg Vector Icons : http://www.onlinewebfonts.com/icon -->
<!DOCTYPE svg PUBLIC "-//W3C//DTD SVG 1.1//EN" "http://www.w3.org/Graphics/SVG/1.1/DTD/svg11.dtd">
<svg version="1.1" xmlns="http://www.w3.org/2000/svg" xmlns:xlink="http://www.w3.org/1999/xlink" x="0px" y="0px" viewBox="0 0 1000 1000" enable-background="new 0 0 1000 1000" xml:space="preserve">
<metadata> Svg Vector Icons : http://www.onlinewebfonts.com/icon </metadata>
<g><path d="M746.3,404.2c27.7,0,50.2-22.5,50.2-50.2c0-27.7-22.5-50.2-50.2-50.2c-27.7,0-50.2,22.5-50.2,50.2C696.1,381.6,718.6,404.2,746.3,404.2z M746.3,331.2c12.6,0,22.8,10.2,22.8,22.8s-10.2,22.8-22.8,22.8c-12.6,0-22.8-10.2-22.8-22.8S733.7,331.2,746.3,331.2z"/><path d="M746.3,486.3c-27.7,0-50.2,22.5-50.2,50.2c0,27.7,22.5,50.2,50.2,50.2c27.7,0,50.2-22.5,50.2-50.2C796.5,508.8,774,486.3,746.3,486.3z M746.3,559.3c-12.6,0-22.8-10.2-22.8-22.8c0-12.6,10.2-22.8,22.8-22.8c12.6,0,22.8,10.2,22.8,22.8C769.1,549.1,758.9,559.3,746.3,559.3z"/><path d="M846.7,395c-27.7,0-50.2,22.5-50.2,50.2c0,27.7,22.5,50.2,50.2,50.2c27.7,0,50.2-22.5,50.2-50.2C896.9,417.6,874.4,395,846.7,395z M846.7,468c-12.6,0-22.8-10.2-22.8-22.8s10.2-22.8,22.8-22.8c12.6,0,22.8,10.2,22.8,22.8S859.3,468,846.7,468z"/><path d="M645.9,395c-27.7,0-50.2,22.5-50.2,50.2c0,27.7,22.5,50.2,50.2,50.2c27.7,0,50.2-22.5,50.2-50.2C696.1,417.6,673.6,395,645.9,395z M645.9,468c-12.6,0-22.8-10.2-22.8-22.8s10.2-22.8,22.8-22.8c12.6,0,22.8,10.2,22.8,22.8S658.5,468,645.9,468z"/><path d="M262.6,404.2c27.7,0,50.2-22.5,50.2-50.2c0-27.7-22.5-50.2-50.2-50.2c-27.7,0-50.2,22.5-50.2,50.2C212.4,381.6,234.9,404.2,262.6,404.2z M262.6,331.2c12.6,0,22.8,10.2,22.8,22.8s-10.2,22.8-22.8,22.8c-12.6,0-22.8-10.2-22.8-22.8S250,331.2,262.6,331.2z"/><path d="M262.6,486.3c-27.7,0-50.2,22.5-50.2,50.2c0,27.7,22.5,50.2,50.2,50.2c27.7,0,50.2-22.5,50.2-50.2C312.8,508.8,290.3,486.3,262.6,486.3z M262.6,559.3c-12.6,0-22.8-10.2-22.8-22.8c0-12.6,10.2-22.8,22.8-22.8c12.6,0,22.8,10.2,22.8,22.8C285.4,549.1,275.2,559.3,262.6,559.3z"/><path d="M363,395c-27.7,0-50.2,22.5-50.2,50.2c0,27.7,22.5,50.2,50.2,50.2c27.7,0,50.2-22.5,50.2-50.2C413.2,417.6,390.7,395,363,395z M363,468c-12.6,0-22.8-10.2-22.8-22.8s10.2-22.8,22.8-22.8c12.6,0,22.8,10.2,22.8,22.8S375.6,468,363,468z"/><path d="M162.2,395c-27.7,0-50.2,22.5-50.2,50.2c0,27.7,22.5,50.2,50.2,50.2c27.7,0,50.2-22.5,50.2-50.2C212.4,417.6,189.9,395,162.2,395z M162.2,468c-12.6,0-22.8-10.2-22.8-22.8s10.2-22.8,22.8-22.8c12.6,0,22.8,10.2,22.8,22.8S174.8,468,162.2,468z"/><path d="M973,476c-13.5-74.9-28.8-159.7-82.1-207.1c-64.4-57.3-245-77.7-392.5-77.7c-112.6,0-321.5,16.4-390.5,77.7c-51.2,45.5-65.8,127-78.7,198.8l-1.5,8.3C8.2,584.4-5,725.4,42.7,782.5c15.2,18.2,35.8,27.3,60.3,26.2c61.1-2.8,126.7-55.8,196.2-112c68.8-55.6,139.8-113,199.3-113c69.6,0,141.8,59.8,211.6,117.7c64.9,53.8,126.1,104.4,185.7,107.1c1.4,0.1,2.7-0.1,4-0.1h0c22.6,0,42.2-9,56.7-26.4C1007.9,720.8,988.9,564.1,973,476z M928.6,758.8c-7.7,9.2-16.8,13.4-28.7,13.4c-0.8,0-1.6,0-2.4-0.1c-47.4-2.2-104.1-49.2-164.1-98.9c-74.8-62-152.2-126.1-234.9-126.1c-72.3,0-148.5,61.6-222.2,121.1c-61.8,50-125.7,101.6-174.9,103.9c-13,0.6-22.6-3.5-30.6-13.1c-29.3-35.1-31.9-138.5-7-276.6l1.5-8.3c12.4-69.3,25.3-140.9,67-178c50.6-44.9,222.5-68.5,366.3-68.5c134.3,0,311.3,17.9,368.2,68.5c43.9,39,58,117.3,70.5,186.3C961.8,619.6,958.6,722.9,928.6,758.8z"/></g>
</svg>