<?xml version="1.0" encoding="utf-8"?>
<!-- Svg Vector Icons : http://www.onlinewebfonts.com/icon -->
<!DOCTYPE svg PUBLIC "-//W3C//DTD SVG 1.1//EN" "http://www.w3.org/Graphics/SVG/1.1/DTD/svg11.dtd">
<svg version="1.1" xmlns="http://www.w3.org/2000/svg" xmlns:xlink="http://www.w3.org/1999/xlink" x="0px" y="0px" viewBox="0 0 1000 1000" enable-background="new 0 0 1000 1000" xml:space="preserve">
<metadata> Svg Vector Icons : http://www.onlinewebfonts.com/icon </metadata>
<g><path d="M133.1,254.6l366.8,352.1L871.4,250l0,0c12.6-11.7,29.7-18.8,48.6-18.8c38.7,0,70,30.1,70,67.2c0,18.1-7.5,34.6-19.6,46.6l0,0l-420,403.2l0,0c-12.7,12.7-30.6,20.6-50.4,20.6c0,0-0.1,0-0.2,0c-0.1,0-0.1,0-0.2,0c-19.8,0-37.6-7.9-50.4-20.6l0,0l-420-403.2l0.2-0.2c-12-12.1-19.5-28.4-19.5-46.5c0-37.1,31.3-67.2,70-67.2C101.2,231.2,120.2,240.3,133.1,254.6z"/></g>
</svg>