<?xml version="1.0" encoding="utf-8"?>
<!-- Svg Vector Icons : http://www.onlinewebfonts.com/icon -->
<!DOCTYPE svg PUBLIC "-//W3C//DTD SVG 1.1//EN" "http://www.w3.org/Graphics/SVG/1.1/DTD/svg11.dtd">
<svg version="1.1" xmlns="http://www.w3.org/2000/svg" xmlns:xlink="http://www.w3.org/1999/xlink" x="0px" y="0px" viewBox="0 0 1000 1000" enable-background="new 0 0 1000 1000" xml:space="preserve">
<metadata> Svg Vector Icons : http://www.onlinewebfonts.com/icon </metadata>
<g><path d="M867.5,908.3h-245c-67.7,0-122.5-54.8-122.5-122.5V745h490v40.8C990,853.5,935.2,908.3,867.5,908.3z M540.8,785.8c0,45.1,36.6,81.7,81.7,81.7h245c45.1,0,81.7-36.6,81.7-81.7H540.8z M500,663.3h490v40.8H500V663.3z M500,581.7c0-67.7,54.8-122.5,122.5-122.5h245c67.7,0,122.5,54.8,122.5,122.5v40.8H500V581.7z M949.2,581.7c0-45.1-36.6-81.7-81.7-81.7h-245c-45.1,0-81.7,36.6-81.7,81.7H949.2z M50.8,949.2L10,295.8h61.3l-40.8-245h40.8l40.8,245h347.1l-40.8,653.3H50.8z M54,336.7l37.6,571.7h285.8l37.6-571.7H54z"/></g>
</svg>