<?xml version="1.0" encoding="utf-8"?>
<!-- Svg Vector Icons : http://www.onlinewebfonts.com/icon -->
<!DOCTYPE svg PUBLIC "-//W3C//DTD SVG 1.1//EN" "http://www.w3.org/Graphics/SVG/1.1/DTD/svg11.dtd">
<svg version="1.1" xmlns="http://www.w3.org/2000/svg" xmlns:xlink="http://www.w3.org/1999/xlink" x="0px" y="0px" viewBox="0 0 1000 1000" enable-background="new 0 0 1000 1000" xml:space="preserve">
<metadata> Svg Vector Icons : http://www.onlinewebfonts.com/icon </metadata>
<g><g transform="translate(0.000000,511.000000) scale(0.100000,-0.100000)"><path d="M188.9,4985.5c-23.7-9.9-53.3-41.5-65.2-67.1c-31.6-69.1-31.6-9545.2,0-9612.4c11.8-27.7,43.4-59.2,71.1-71.1c67.2-31.6,9543.3-31.6,9610.4,0c27.7,11.9,59.2,43.5,71.1,71.1c31.6,67.1,31.6,9543.2,0,9610.4c-11.9,27.7-43.5,59.2-71.1,71.1C9740,5017.1,250.1,5015.2,188.9,4985.5z M9582,4021.7v-671.5H5000H418v671.5v671.5h4582h4582V4021.7z M9582-708.4v-3762.4H5000H418v3762.4V3054h4582h4582V-708.4z"/><path d="M1257.4,4241c-169.8-71.1-154-341.7,23.7-387.1c75-17.8,179.7,25.7,213.3,88.9C1587.2,4120.5,1433.1,4312.1,1257.4,4241z"/><path d="M2266.6,4197.5c-61.2-73.1-67.2-160-11.9-248.9c75-122.4,272.5-104.7,329.8,29.6c63.2,150.1-23.7,280.5-181.7,280.5C2331.8,4258.7,2308.1,4248.9,2266.6,4197.5z"/><path d="M3331.1,4209.4c-79-77-73.1-213.3,11.9-290.3c75-71.1,169.8-73.1,250.8-5.9c98.8,83,100.7,209.4,4,306.1C3538.5,4278.5,3394.3,4274.5,3331.1,4209.4z"/><path d="M4990.1,1661.6l-49.4-47.4V751.1v-865L4763-295.6c-181.7-183.7-201.5-223.2-156-310.1c13.8-21.7,120.5-160,237-306.1l215.3-262.7V-2320c0-1117.9,0-1143.5,39.5-1183s65.2-39.5,1963.2-39.5h1925.6l39.5,51.3c41.5,53.3,41.5,53.3,41.5,2579.4v2526l-49.4,47.4l-47.4,49.4H7004.6H5037.5L4990.1,1661.6z M8752.5-925.7v-2320.6l-1692.6,4l-1694.6,5.9l-9.9,1098.1c-5.9,756.4-15.8,1106-31.6,1125.8c-11.9,15.8-98.8,122.5-193.5,239c-92.8,114.5-169.9,217.2-169.9,225.1c0,7.9,67.2,84.9,150.1,169.9l150.1,154l-5.9,809.7l-7.9,809.8h1753.8h1751.8V-925.7z"/><path d="M5713,415.4c-55.3-69.1-53.3-148.1,3.9-201.4l45.4-43.5h1305.5h1307.5l41.5,53.3c51.3,65.2,41.5,156-21.7,209.3c-39.5,31.6-132.3,33.6-1341,33.6H5752.5L5713,415.4z"/><path d="M5772.2-364.8c-108.6-43.4-134.3-163.9-51.4-244.9l47.4-49.4h1291.6c1202.8,0,1295.6,2,1335.1,35.5c67.1,55.3,73.1,144.2,15.8,213.3l-49.4,57.3l-1271.9,4C6301.5-347,5801.9-352.9,5772.2-364.8z"/><path d="M5756.4-1192.3c-92.8-37.5-112.6-171.8-35.5-246.9l47.4-49.4h1273.9c890.7,0,1287.7,5.9,1321.3,21.7c49.4,21.7,92.8,92.8,92.8,148.1c0,17.8-25.7,57.3-57.3,88.9l-57.3,57.3l-1271.9-2C6370.7-1174.5,5780.1-1182.4,5756.4-1192.3z"/><path d="M5720.9-2051.4c-51.3-49.4-63.2-124.4-29.6-187.6c37.5-69.1,124.4-79,764.3-79c505.6,0,630,5.9,675.5,29.6c94.8,47.4,110.6,160,31.6,237l-47.4,49.4h-673.5h-673.5L5720.9-2051.4z"/><path d="M2238.9,1432.5C1626.7,1323.9,1190.2,921,1028.3,318.6c-63.2-239-61.2-624.1,7.9-880.8c136.3-513.5,420.7-938.1,732.7-1094.2c118.5-59.2,167.9-61.2,233-9.9c49.4,37.5,51.3,45.4,59.3,369.3c11.8,355.5,31.6,450.3,126.4,572.8c92.8,122.4,270.6,179.7,450.3,140.2c79-15.8,118.5-39.5,191.6-112.6c124.4-128.4,156-248.8,156-600.4c0-250.8,2-272.6,45.4-318c73.1-84.9,128.4-83,264.7,5.9c331.8,215.3,622.1,641.9,750.5,1108c27.7,98.8,35.5,195.5,33.6,414.8c-2,252.8-7.9,308.1-55.3,464.1c-84.9,278.5-173.8,428.6-377.2,632c-199.5,201.5-383.1,312-641.9,385.1C2835.4,1444.4,2412.7,1464.1,2238.9,1432.5z M2876.9,1108.6c436.5-110.6,764.3-444.4,867-878.9c45.4-187.6,41.5-509.5-7.9-687.3c-65.2-235-260.7-584.6-393-703.1l-41.5-37.5v77c0,118.5-53.3,341.7-106.6,452.3c-27.7,53.3-86.9,136.3-130.4,183.7l-81,82.9l69.1,83C3412.1,99.4,3185,735.3,2647.8,820.2c-308.1,49.4-608.3-116.5-744.6-408.8c-43.5-90.8-51.3-142.2-53.3-270.6c0-140.2,7.9-173.8,63.2-286.4c35.5-71.1,88.9-154.1,120.5-185.7l59.2-55.3l-75-67.2C1869.6-587.9,1761-868.4,1761-1117.2c0-73.1-7.9-134.3-17.8-134.3c-33.6,0-201.5,242.9-278.5,402.9c-106.6,221.2-158,420.7-171.8,653.7c-37.5,647.8,318,1161.3,900.6,1303.5C2347.6,1146.1,2730.7,1146.1,2876.9,1108.6z M2748.5,458.8c114.5-75.1,167.9-175.8,167.9-321.9c0-102.7-9.9-134.3-59.3-207.4c-106.6-152.1-296.3-211.3-460.2-144.2c-312.1,132.3-321.9,556.9-13.8,705.1C2489.8,539.8,2645.8,527.9,2748.5,458.8z"/></g></g>
</svg>