<?xml version="1.0" encoding="utf-8"?>
<!-- Svg Vector Icons : http://www.onlinewebfonts.com/icon -->
<!DOCTYPE svg PUBLIC "-//W3C//DTD SVG 1.1//EN" "http://www.w3.org/Graphics/SVG/1.1/DTD/svg11.dtd">
<svg version="1.1" xmlns="http://www.w3.org/2000/svg" xmlns:xlink="http://www.w3.org/1999/xlink" x="0px" y="0px" viewBox="0 0 1000 1000" enable-background="new 0 0 1000 1000" xml:space="preserve">
<metadata> Svg Vector Icons : http://www.onlinewebfonts.com/icon </metadata>
<g><path d="M218.5,261.9c12,12,31.4,12,43.4,0c12-12,12-31.4,0-43.4l-64.9-64.9c-12-12-31.4-12-43.4,0c-12,12-12,31.4,0,43.4L218.5,261.9L218.5,261.9z M794.5,248.3l64.3-64.3c11.9-11.9,11.9-31.1,0-42.9c-11.9-11.9-31.1-11.9-42.9,0l-64.3,64.3c-11.9,11.9-11.9,31.1,0,42.9C763.5,260.2,782.7,260.2,794.5,248.3L794.5,248.3z M499.9,163.2c16.9,0,30.6-13.7,30.6-30.6V40.7c0-16.9-13.7-30.6-30.6-30.6c-16.9,0-30.6,13.7-30.6,30.6v91.8C469.3,149.4,483,163.2,499.9,163.2L499.9,163.2z M132.4,469.4H40.6C23.7,469.4,10,483.1,10,500c0,16.9,13.7,30.6,30.6,30.6h91.8c16.9,0,30.6-13.7,30.6-30.6C163.1,483.1,149.4,469.4,132.4,469.4L132.4,469.4z M499.9,224.3c-152.4,0-275.8,123.5-275.8,275.8c0,152.4,123.5,275.8,275.8,275.8c152.4,0,275.8-123.5,275.8-275.8C775.8,347.8,652.3,224.3,499.9,224.3L499.9,224.3z M959.4,469.4h-91.8c-16.9,0-30.6,13.7-30.6,30.6c0,16.9,13.7,30.6,30.6,30.6h91.8c16.9,0,30.6-13.7,30.6-30.6C989.9,483.1,976.3,469.4,959.4,469.4L959.4,469.4z M781.4,738.2c-12-12-31.4-12-43.4,0c-12,12-12,31.4,0,43.4l64.9,64.9c12,12,31.4,12,43.4,0c12-12,12-31.4,0-43.4L781.4,738.2L781.4,738.2z M237,720.2l-64.3,64.3c-11.9,11.9-11.9,31.1,0,42.9c11.9,11.9,31.1,11.9,42.9,0l64.3-64.3c11.9-11.9,11.9-31.1,0-42.9C267.9,708.3,248.7,708.3,237,720.2L237,720.2z M499.9,836.8c-16.9,0-30.6,13.7-30.6,30.6v91.8c0,16.9,13.7,30.6,30.6,30.6c16.9,0,30.6-13.7,30.6-30.6v-91.8C530.6,850.6,516.8,836.8,499.9,836.8L499.9,836.8z"/></g>
</svg>