<?xml version="1.0" encoding="utf-8"?>
<!-- Svg Vector Icons : http://www.onlinewebfonts.com/icon -->
<!DOCTYPE svg PUBLIC "-//W3C//DTD SVG 1.1//EN" "http://www.w3.org/Graphics/SVG/1.1/DTD/svg11.dtd">
<svg version="1.1" xmlns="http://www.w3.org/2000/svg" xmlns:xlink="http://www.w3.org/1999/xlink" x="0px" y="0px" viewBox="0 0 1000 1000" enable-background="new 0 0 1000 1000" xml:space="preserve">
<metadata> Svg Vector Icons : http://www.onlinewebfonts.com/icon </metadata>
<g><path d="M218.5,261.8c12,12,31.4,12,43.3,0c12-12,12-31.4,0-43.3l-65-65c-12-12-31.4-12-43.3,0c-12,12-12,31.4,0,43.3L218.5,261.8z M500,163.1c16.9,0,30.6-13.7,30.6-30.6V40.6c0-16.9-13.7-30.6-30.6-30.6s-30.6,13.7-30.6,30.6v91.9C469.4,149.4,483.1,163.1,500,163.1z M236.9,720.2l-64.4,64.4c-11.8,11.9-11.8,31.1,0,42.9c11.8,11.8,31.1,11.8,42.9,0l64.4-64.4c11.8-11.8,11.8-31.1,0-42.9C268,708.3,248.8,708.3,236.9,720.2z M794.7,248.3l64.4-64.4c11.8-11.9,11.8-31.1,0-42.9c-11.8-11.8-31.1-11.8-42.9,0l-64.4,64.4c-11.8,11.8-11.8,31.1,0,42.9C763.6,260.1,782.8,260.1,794.7,248.3z M132.5,469.4H40.6C23.7,469.4,10,483.1,10,500c0,16.9,13.7,30.6,30.6,30.6h91.9c16.9,0,30.6-13.7,30.6-30.6C163.1,483.1,149.4,469.4,132.5,469.4z M781.5,738.2c-12-12-31.3-12-43.3,0c-12,12-12,31.4,0,43.3l65,65c12,12,31.4,12,43.3,0c12-12,12-31.4,0-43.3L781.5,738.2z M959.4,469.4h-91.9c-16.9,0-30.6,13.7-30.6,30.6c0,16.9,13.7,30.6,30.6,30.6h91.9c16.9,0,30.6-13.7,30.6-30.6C990,483.1,976.3,469.4,959.4,469.4z M500,224.2c-152.3,0-275.8,123.5-275.8,275.8c0,152.3,123.5,275.8,275.8,275.8c152.3,0,275.8-123.5,275.8-275.8C775.8,347.7,652.3,224.2,500,224.2z M500,714.3c-118.4,0-214.3-95.9-214.3-214.3c0-118.4,96-214.3,214.3-214.3c118.4,0,214.3,96,214.3,214.3C714.3,618.4,618.4,714.3,500,714.3z M500,836.9c-16.9,0-30.6,13.7-30.6,30.6v91.9c0,16.9,13.7,30.6,30.6,30.6s30.6-13.7,30.6-30.6v-91.9C530.6,850.6,516.9,836.9,500,836.9z"/></g>
</svg>