<?xml version="1.0" encoding="utf-8"?>
<!-- Svg Vector Icons : http://www.onlinewebfonts.com/icon -->
<!DOCTYPE svg PUBLIC "-//W3C//DTD SVG 1.1//EN" "http://www.w3.org/Graphics/SVG/1.1/DTD/svg11.dtd">
<svg version="1.1" xmlns="http://www.w3.org/2000/svg" xmlns:xlink="http://www.w3.org/1999/xlink" x="0px" y="0px" viewBox="0 0 1000 1000" enable-background="new 0 0 1000 1000" xml:space="preserve">
<metadata> Svg Vector Icons : http://www.onlinewebfonts.com/icon </metadata>
<g><g transform="translate(0.000000,511.000000) scale(0.100000,-0.100000)"><path d="M1401.9,4525.1c-693-179-1084.2-882.2-1258.1-2268.1C85,1778.8,85,392.9,146.4-287.3c63.9-739,166.2-1508.7,207.1-1575.1c23-35.8,79.3-28.1,115.1,15.3c17.9,20.4,38.4,38.3,48.6,38.3c7.7,0,12.8-133,7.7-294.1c-15.3-516.5,92-938.4,319.6-1276c133-191.8,391.2-406.6,475.6-393.8c74.2,10.2,115.1,86.9,76.7,140.6c-122.7,173.9-145.7,250.6-156,519.1l-10.2,268.5l89.5-127.9c217.4-312,838.7-772.2,976.8-718.5c63.9,23,43.5,117.6-86.9,411.7c-646.9,1449.8-700.6,2797.4-156,3935.3c148.3,312,547.2,892.4,639.3,930.8c7.7,2.6-12.8-99.7-46-230.1c-53.7-209.7-58.8-281.3-48.6-608.6c7.7-345.2,15.3-391.2,102.3-641.8c166.2-496.1,416.8-925.7,933.3-1605.8c268.5-355.4,386.1-552.3,465.4-779.9c186.7-544.7-20.5-1035.6-572.8-1355.3c-148.3-86.9-171.3-109.9-163.6-166.2c12.8-102.3,107.4-97.2,301.7,15.4c258.3,153.4,493.5,396.3,606,636.7c94.6,194.3,97.2,212.2,97.2,470.5c-2.6,447.5-107.4,675.1-657.2,1409c-682.7,910.3-920.5,1449.8-923.1,2081.4c-2.6,350.3,33.2,516.5,191.8,928.2c92,237.8,99.7,271.1,63.9,304.3c-69,69-161.1,15.3-409.1-230.1c-529.3-531.9-907.8-1232.5-1068.9-1981.7c-66.5-319.6-94.6-1043.3-51.1-1403.8c61.4-485.8,245.5-1178.8,427-1590.5c33.2-74.2,61.4-148.3,61.4-161.1c0-43.5-109.9,35.8-309.4,227.6c-227.6,217.4-352.9,434.7-373.3,639.3c-17.9,212.2-28.1,237.8-94.6,237.8c-33.3,0-74.2-15.3-89.5-35.8c-48.6-58.8-110-549.8-99.7-813.2c5.1-135.5,0-240.4-10.2-235.2c-38.4,25.6-148.3,235.2-199.4,378.4c-122.7,355.4-140.6,884.7-51.1,1403.8c28.1,168.8,51.1,309.4,51.1,314.5c0,5.1-23,20.4-48.6,35.8c-115.1,58.8-156-17.9-209.7-391.2c-15.3-110-38.4-191.8-48.6-179c-23,20.4-107.4,649.5-153.4,1120c-53.7,557.4-76.7,1058.6-76.7,1662.1c0,869.4,61.4,1485.7,194.3,2002.2c411.7,1582.8,1375.7,1726,2973.8,444.9c161.1-130.4,306.8-235.3,324.7-235.3c15.3,0,94.6,87,176.4,191.8c268.5,352.9,641.8,639.3,984.5,756.9c122.7,43.5,227.6,58.8,409.1,58.8c296.6,2.5,524.2-63.9,795.2-230.1c99.7-61.4,196.9-112.5,217.3-112.5c20.5,0,35.8-12.8,35.8-28.1c0-35.8-255.7-1616.1-263.4-1623.7c-2.6-2.6-63.9-23-138.1-46c-156-51.1-381-207.1-473-327.3c-191.8-253.1-276.2-567.6-227.6-854c81.8-462.8,427-808,884.8-887.3l158.5-25.6l-20.5-104.8c-35.8-181.6-25.6-682.7,15.4-841.3c135.5-524.2,501.2-825.9,1109.8-912.9c202-30.7,202-30.7,248-133c25.6-56.2,84.4-130.4,130.4-166.2c102.3-79.3,301.7-107.4,416.8-58.8c110,46,250.6,212.2,271,319.6c40.9,219.9-58.8,452.6-227.6,531.9c-112.5,53.7-304.3,56.3-401.5,5.1c-81.8-40.9-189.2-171.3-217.3-260.8c-20.4-71.6-84.4-74.1-314.5-20.4c-368.2,87-659.7,322.2-772.2,618.8c-84.4,227.6-112.5,539.5-71.6,810.6l33.2,225l156,56.3c304.3,110,493.5,283.8,631.6,572.8c76.7,158.5,81.8,191.8,81.8,439.8s-5.1,281.3-81.8,439.8c-92,196.9-250.6,378.4-409.1,473.1c-86.9,51.1-107.4,74.2-97.2,117.6c17.9,74.2,268.5,1644.2,268.5,1677.4c0,38.4,150.9,35.8,493.5-10.2c1378.3-181.5,2050.8-925.7,1935.7-2147.9c-46-460.3-232.7-1143-393.8-1419.2c-35.8-63.9-66.5-135.5-66.5-163.6c0-25.6,97.2-148.3,214.8-271.1c230.1-242.9,347.8-442.4,347.8-588.1c0-179-115.1-263.4-419.4-309.4c-143.2-20.4-196.9-40.9-207.1-71.6c-7.7-25.6,23-125.3,66.5-222.5c51.1-112.5,81.8-219.9,84.4-301.7c2.5-135.5,12.8-125.3-189.2-219.9c-28.1-12.8-35.8-51.1-30.7-122.7c10.2-130.4-51.1-255.7-135.5-276.2c-35.8-7.7-125.3-7.7-202,0c-97.2,12.8-143.2,7.7-161.1-15.4c-15.3-17.9-33.2-148.3-38.4-288.9c-15.3-391.2-120.2-544.6-409.1-606c-189.2-38.4-483.3,38.3-854,225c-281.3,140.6-286.4,140.6-363.1,102.3c-242.9-125.3-322.2-478.2-207.1-928.2c56.3-222.5,40.9-373.3-40.9-442.4c-92-76.7-7.7-207.1,102.3-158.5c74.2,35.8,130.4,138.1,168.8,309.4c23,104.8,20.5,153.4-12.8,250.6c-107.4,329.9-110,593.2-2.5,721.1l61.4,69.1l294.1-145.8c442.4-217.3,820.8-291.5,1066.3-207.1c225,76.7,378.5,340.1,401.5,685.3l12.8,214.8h125.3c237.8,0,355.4,102.3,391.2,337.5c12.8,81.8,33.2,125.3,63.9,135.5c23,7.7,69,40.9,102.3,76.7c89.5,94.6,94.6,265.9,20.4,491l-61.3,186.7l89.5,15.4c291.5,48.6,455.2,135.5,524.2,276.2c43.4,89.5,46,117.6,20.4,237.8c-38.4,186.7-176.4,401.5-414.2,654.6l-199.4,212.3l46,76.7c140.6,219.9,360.5,1007.5,409.1,1462.6c56.3,498.6,0,877.1-184.1,1258.1c-145.8,304.3-447.5,603.5-774.8,772.2c-531.9,271-966.6,358-1815.5,363.1l-588.1,5.1l-115.1,66.5c-437.3,260.8-887.3,332.4-1311.8,209.7c-329.9-97.2-736.4-381-1020.3-708.3c-86.9-99.7-168.8-181.5-179-176.4c-12.8,2.6-107.4,74.2-209.7,158.5C3092.1,4041.8,2611.3,4323,2215,4456C1938.8,4548.1,1603.9,4576.2,1401.9,4525.1z M6886.7,3898.6c0-23-56.3-398.9-127.9-833.6c-69-434.7-127.9-792.7-127.9-797.8c0-7.7-263.4,17.9-276.2,28.1c-2.6,2.6,51.1,365.7,122.7,805.5c69.1,439.8,127.9,802.9,127.9,808c0,10.2,107.4,28.1,199.5,33.2C6866.3,3944.6,6886.7,3934.4,6886.7,3898.6z M6646.4,2024.3c143.2-43.5,196.9-79.3,317.1-199.4c424.5-424.5,309.4-1137.9-225-1401.3c-127.9-63.9-173.9-71.6-388.7-71.6c-214.8,0-258.3,7.7-378.4,71.6c-179,94.6-327.3,248-411.7,424.5c-56.3,120.2-66.5,179-66.5,360.5c0,181.6,10.2,240.4,66.5,360.6c107.4,227.6,322.2,411.7,560,485.8C6239.8,2090.7,6472.5,2078,6646.4,2024.3z M8172.9-1402.2c158.5-81.8,196.9-291.5,79.3-429.6c-189.2-225-526.8,51.1-375.9,309.4C7950.5-1392,8065.5-1345.9,8172.9-1402.2z"/><path d="M6257.7,1620.3c-191.8-46-317.1-209.7-317.1-411.7c0-207.1,125.3-365.7,327.3-411.7c207.1-46,429.6,92.1,493.5,304.3C6848.4,1397.8,6562,1691.9,6257.7,1620.3z M6505.7,1364.6c51.1-51.1,74.2-99.7,74.2-156c0-94.6-120.2-230.1-204.6-230.1c-232.7,0-329.9,314.5-130.4,421.9C6347.2,1456.6,6423.9,1446.4,6505.7,1364.6z"/></g></g>
</svg>