<?xml version="1.0" encoding="utf-8"?>
<!-- Svg Vector Icons : http://www.onlinewebfonts.com/icon -->
<!DOCTYPE svg PUBLIC "-//W3C//DTD SVG 1.1//EN" "http://www.w3.org/Graphics/SVG/1.1/DTD/svg11.dtd">
<svg version="1.1" xmlns="http://www.w3.org/2000/svg" xmlns:xlink="http://www.w3.org/1999/xlink" x="0px" y="0px" viewBox="0 0 1000 1000" enable-background="new 0 0 1000 1000" xml:space="preserve">
<metadata> Svg Vector Icons : http://www.onlinewebfonts.com/icon </metadata>
<g><path d="M242.8,390.5h85.8l-38.3,212.1h96.5l36.7-212.1H510l13-75.8H255.8L242.8,390.5L242.8,390.5z M657.7,506.1l-16.8-191.4h-96.5l48.2,287.9h96.5l152.4-287.9h-95.7L657.7,506.1L657.7,506.1z M657,823.9H347.6c-15.3,0-27.6,12.3-27.6,26.8s12.3,26.8,27.6,26.8H657c15.3,0,27.6-12.3,27.6-26.8S671.5,823.9,657,823.9z M957.8,122.5H42.2c-19.9,0-32.2,12.3-32.2,32.2V735c0,19.9,19.9,32.2,39.8,32.2h908c19.9,0,32.2-12.3,32.2-32.2V154.7C990,134.8,977.8,122.5,957.8,122.5z M941.8,702.9c0,10-6.1,16.1-16.1,16.1H74.3c-10,0-16.1-6.1-16.1-16.1V186.1c0-10,6.1-16.1,16.1-16.1h851.4c10,0,16.1,6.1,16.1,16.1V702.9z"/></g>
</svg>