<?xml version="1.0" encoding="utf-8"?>
<!-- Svg Vector Icons : http://www.onlinewebfonts.com/icon -->
<!DOCTYPE svg PUBLIC "-//W3C//DTD SVG 1.1//EN" "http://www.w3.org/Graphics/SVG/1.1/DTD/svg11.dtd">
<svg version="1.1" xmlns="http://www.w3.org/2000/svg" xmlns:xlink="http://www.w3.org/1999/xlink" x="0px" y="0px" viewBox="0 0 1000 1000" enable-background="new 0 0 1000 1000" xml:space="preserve">
<metadata> Svg Vector Icons : http://www.onlinewebfonts.com/icon </metadata>
<g><g transform="translate(0.000000,511.000000) scale(0.100000,-0.100000)"><path d="M4506.9,4987.1c-102.8-9.9-318.2-43.5-476.3-75.1C2716.1,4647.2,1569.8,3848.6,840.4,2688.4c-207.5-328.1-436.8-842-539.6-1211.6l-41.5-144.3l150.2,5.9l150.2,5.9l73.1,217.4c41.5,120.6,92.9,266.8,116.6,326.1c67.2,166,278.7,567.3,383.4,723.4l92.9,142.3l223.3-79.1c264.9-92.9,717.5-213.5,1069.3-282.6c142.3-27.7,260.9-53.4,264.8-57.3c4-5.9-13.8-108.7-41.5-233.2c-27.7-122.5-65.2-316.2-81-430.9c-17.8-114.6-37.6-237.2-43.5-270.8l-9.9-65.2h146.3H2900l35.6,231.3c35.6,231.3,134.4,711.5,150.2,725.4c3.9,4,96.8-4,205.5-19.8c521.8-69.2,976.4-94.9,1689.9-94.9c729.3-2,1093,17.8,1644.5,87c156.1,17.8,286.6,31.6,290.6,27.7c19.8-17.8,110.7-474.4,170-871.6l13.8-85h148.2h148.2l-11.8,55.3c-5.9,29.6-19.8,124.5-31.6,211.5c-13.9,87-49.4,286.6-81,442.7c-33.6,156.1-57.3,286.6-53.4,288.6c4,4,122.6,29.6,262.9,59.3c359.7,71.2,810.4,191.7,1071.2,282.6l221.4,79.1l112.6-171.9c168-258.9,367.6-678,464.5-976.4l87-268.8l152.2-2h150.2l-39.5,144.3c-302.4,1073.3-1039.6,2073.4-1992.3,2711.8C6771.9,4815.2,5647.3,5095.8,4506.9,4987.1z M5208.5,4684.7C5837,4552.3,6400.4,3866.4,6770,2773.4l65.2-189.7l-61.3-11.9c-312.3-55.4-1181.9-110.7-1763-110.7c-593,0-1462.6,53.4-1780.8,110.7l-61.3,11.9l33.6,110.7c239.2,757,654.2,1438.9,1061.4,1739.3C4589.9,4672.8,4886.4,4751.9,5208.5,4684.7z M3844.7,4443.6c-353.8-363.7-658.2-901.3-879.6-1547.6c-47.4-136.4-90.9-253-96.8-260.9c-13.8-17.8-506,81-812.3,160.1c-292.5,77.1-618.6,187.8-626.6,211.5c-9.9,31.6,413.1,466.5,624.6,642.4c468.4,391.3,1027.8,691.8,1628.6,877.6C4012.7,4627.4,4020.6,4623.4,3844.7,4443.6z M6445.8,4485.1c513.9-170,1083.1-486.2,1502.1-836.1c211.5-175.9,634.5-610.7,624.6-642.4c-21.7-65.2-1393.4-419-1438.9-371.6c-7.9,7.9-33.6,77.1-57.3,152.2c-229.3,713.5-581.1,1330.2-978.4,1717.6l-98.8,94.9l85-11.9C6129.6,4581.9,6293.6,4534.5,6445.8,4485.1z"/><path d="M698.1,974.8c7.9-25.7,49.4-152.2,379.5-1166.1l189.8-589h255h255l37.5,104.7c21.7,55.4,90.9,251,154.2,432.9c63.2,181.8,120.6,324.2,128.5,316.3c5.9-7.9,77.1-203.6,158.1-432.9l146.3-421h256.9h256.9l282.6,875.6c156.2,480.3,282.6,879.6,280.7,889.4c0,13.8-593,21.7-593,5.9c0-4-179.9-622.6-229.3-790.6c-5.9-19.8-17.8-27.7-27.7-19.8c-7.9,9.9-75.1,197.7-148.2,419l-132.4,399.3h-253h-253l-132.4-399.3c-112.7-340-168-480.3-168-426.9c0,7.9-158.1,553.4-229.3,792.6c-9.9,29.6-41.5,33.6-318.2,33.6C757.4,998.5,690.2,992.6,698.1,974.8z"/><path d="M3704.4,678.3c57.3-177.9,187.8-577.1,288.6-891.4l185.8-569.2l256.9,5.9l256.9,5.9l146.3,421c81,229.3,154.2,419,160.1,419c7.9,0,81-189.7,162.1-419l150.2-421l255-5.9l256.9-5.9L6009-213.1c100.8,314.3,231.2,713.5,288.6,891.4l102.8,320.2h-300.4h-300.4l-116.6-399.3c-63.3-221.4-122.6-409.1-130.5-417c-5.9-9.9-75.1,168-150.2,395.3l-138.4,411.1l-255,5.9l-255,5.9l-138.4-417c-75.1-227.3-142.3-415.1-148.2-415.1c-5.9,0-65.2,183.8-132.4,411.1l-118.6,409.1l-308.3,5.9l-306.4,4L3704.4,678.3z"/><path d="M6522.9,984.7c-2-9.9,124.5-409.1,280.7-889.4l282.7-875.6h257h256.9l146.3,421c79.1,229.3,150.2,425,158.1,432.9c5.9,7.9,81-177.9,164-415.1l150.2-428.9l256.9-5.9l259-5.9l81,253c215.4,668.1,480.3,1480.4,490.1,1504.1c5.9,19.8-55.3,23.7-294.5,19.8l-304.4-5.9l-118.6-399.3c-65.2-219.4-124.5-405.2-130.4-411.1c-7.9-5.9-75.1,172-150.2,399.3l-138.4,411.1l-254.9,5.9l-255,4l-138.3-413.1c-75.1-229.3-144.3-409.1-152.2-401.2c-5.9,7.9-65.2,191.7-128.5,409.1l-116.6,395.3l-300.5,5.9C6657.3,996.5,6522.9,992.6,6522.9,984.7z"/><path d="M9072.6-493.8v-286.6h286.6h286.6v286.6v286.6h-286.6h-286.6V-493.8z"/><path d="M300.9-1258.7c211.5-755,660.1-1510,1241.2-2091.1c415.1-415.1,782.7-677.9,1314.4-938.8c652.3-322.2,1245.2-470.4,1986.4-498.1c1243.2-45.5,2435.1,385.4,3399.6,1227.4c666.1,581.1,1221.5,1456.7,1458.6,2300.6l39.5,142.3h-150.2l-152.2-2l-85-260.9c-96.8-296.5-302.4-731.3-466.4-984.3l-110.7-170l-280.7,94.9c-308.3,104.7-713.5,209.5-1051.5,274.7c-120.6,21.8-219.4,43.5-223.4,47.4c-3.9,4,17.8,134.4,51.4,290.5c31.6,156.1,67.2,355.8,81,442.7c11.8,87,25.7,181.8,31.6,213.5l11.8,53.4h-150.2c-83,0-150.2-7.9-150.2-15.8c0-85-160.1-923-179.9-940.8c-4-4-88.9,3.9-187.8,17.8c-511.9,71.2-968.5,96.9-1727.5,96.9c-757,0-1221.5-25.7-1727.5-96.9c-98.8-13.8-183.8-21.7-187.8-17.8c-15.8,13.8-100.8,424.9-142.3,685.8l-43.5,270.8h-144.3h-146.3l11.9-83c35.6-247.1,92.9-579.1,128.5-733.3c23.7-96.9,37.5-177.9,33.6-181.8c-4-5.9-104.8-27.7-225.3-49.4c-314.3-59.3-853.8-201.6-1108.8-292.5l-223.3-79.1l-92.9,142.3c-104.8,156.1-316.2,557.4-383.4,723.4c-23.7,59.3-75.1,207.5-116.6,326.1l-73.1,217.4l-150.2,5.9l-150.2,5.9L300.9-1258.7z M5821.3-2262.7c312.3-19.8,830.1-69.2,952.7-90.9l61.3-11.9l-65.2-189.7c-355.8-1045.6-877.6-1713.6-1484.4-1893.5c-154.2-45.5-415.1-45.5-569.2,0c-628.5,185.8-1162.2,891.4-1529.8,2022c-19.8,59.3-17.8,61.3,41.5,73.1c116.6,19.8,654.2,73.1,913.1,88.9C4522.7-2241,5461.5-2241,5821.3-2262.7z M2959.3-2665.9c223.3-652.3,529.7-1193.8,885.5-1557.5c87-90.9,136.4-154.2,118.6-154.2c-17.8,0-112.7,23.7-213.5,51.4c-596.9,168-1215.6,494.1-1695.9,895.4c-211.5,175.9-634.5,610.7-624.6,642.4c7.9,21.7,312.3,126.5,587,201.6c211.5,59.3,810.4,185.8,838,177.9C2864.4-2411,2911.8-2527.6,2959.3-2665.9z M7501.3-2474.2c381.4-77.1,1015.9-257,1063.3-302.4c21.8-19.8-171.9-243.1-397.3-458.6c-195.7-185.8-541.6-450.6-774.8-594.9c-342-211.5-1037.7-498.1-1306.5-539.6l-87-13.8l168,175.9c357.7,373.6,636.4,857.8,861.7,1504.1c49.4,138.4,92.9,264.9,96.9,276.7C7135.6-2399.1,7135.6-2399.1,7501.3-2474.2z"/></g></g>
</svg>