<?xml version="1.0" encoding="utf-8"?>
<!-- Svg Vector Icons : http://www.onlinewebfonts.com/icon -->
<!DOCTYPE svg PUBLIC "-//W3C//DTD SVG 1.1//EN" "http://www.w3.org/Graphics/SVG/1.1/DTD/svg11.dtd">
<svg version="1.1" xmlns="http://www.w3.org/2000/svg" xmlns:xlink="http://www.w3.org/1999/xlink" x="0px" y="0px" viewBox="0 0 1000 1000" enable-background="new 0 0 1000 1000" xml:space="preserve">
<metadata> Svg Vector Icons : http://www.onlinewebfonts.com/icon </metadata>
<g><path d="M952.3,765.1c-20.8,0-37.7-17-37.7-37.9c0-20.9,16.9-37.9,37.7-37.9c20.8,0,37.7,17,37.7,37.9C990,748.2,973.1,765.1,952.3,765.1z M952.3,651.5c-20.8,0-37.7-17-37.7-37.9s16.9-37.9,37.7-37.9c20.8,0,37.7,17,37.7,37.9S973.1,651.5,952.3,651.5z M952.3,537.9c-20.8,0-37.7-17-37.7-37.9c0-20.9,16.9-37.9,37.7-37.9c20.8,0,37.7,17,37.7,37.9C990,520.9,973.1,537.9,952.3,537.9z M10,358h113.6v-42.6h71V358h610.7v-42.6h71V358H990v71H10V358z M10,201.7h113.6v-42.6h71v42.6h610.7v-42.6h71v42.6H990v71H10V201.7z M10,45.5h980v71H10V45.5z M194.6,883.5h610.7V457.4h71v497.1h-71H194.6h-71V457.4h71V883.5z M952.3,803c20.8,0,37.7,17,37.7,37.9c0,20.9-16.9,37.9-37.7,37.9c-20.8,0-37.7-17-37.7-37.9C914.6,820,931.5,803,952.3,803z"/></g>
</svg>