<?xml version="1.0" encoding="utf-8"?>
<!-- Svg Vector Icons : http://www.onlinewebfonts.com/icon -->
<!DOCTYPE svg PUBLIC "-//W3C//DTD SVG 1.1//EN" "http://www.w3.org/Graphics/SVG/1.1/DTD/svg11.dtd">
<svg version="1.1" xmlns="http://www.w3.org/2000/svg" xmlns:xlink="http://www.w3.org/1999/xlink" x="0px" y="0px" viewBox="0 0 1000 1000" enable-background="new 0 0 1000 1000" xml:space="preserve">
<metadata> Svg Vector Icons : http://www.onlinewebfonts.com/icon </metadata>
<g><path d="M960.8,45.6H39.2C23.1,45.6,10,59,10,75.5V156c0,16.5,13.1,29.9,29.2,29.9h110.4v29.3H97.1c-7.4,0-13.5,9.1-13.5,20.2v57.3c0,11.2,6,20.2,13.5,20.2h723v30.5H522.2v-29.3h-31.8v29.3H181.4v-29.3h-31.8v29.3H97.1c-7.4,0-13.5,9.1-13.5,20.2V421c0,11.2,6,20.2,13.5,20.2h723v30.5H522.2v-29.3h-31.8v29.3H181.4v-29.3h-31.8v29.3H97.1c-7.4,0-13.5,9.1-13.5,20.2v57.3c0,11.2,6,20.2,13.5,20.2h723V600H522.2v-29.3h-31.8V600H181.4v-29.3h-31.8V600H97.1c-7.4,0-13.5,9.1-13.5,20.2v57.3c0,11.2,6,20.2,13.5,20.2h723v30.5H522.2v-29.3h-31.8v29.3H181.4v-29.3h-31.8v29.3H97.1c-7.4,0-13.5,9.1-13.5,20.2v57.3c0,11.2,6,20.2,13.5,20.2h723v30.5H522.2v-29.3h-31.8v29.3H181.4v-29.3h-31.8v29.3H97.1c-7.4,0-13.5,9.1-13.5,20.2v57.3c0,11.2,6,20.2,13.5,20.2h809.6c7.4,0,13.5-9.1,13.5-20.2v-57.3c0-11.2-6-20.2-13.5-20.2h-54.7v-30.5h54.7c7.4,0,13.5-9.1,13.5-20.2v-57.3c0-11.2-6-20.2-13.5-20.2h-54.7v-30.5h54.7c7.4,0,13.5-9.1,13.5-20.2v-57.3c0-11.2-6-20.2-13.5-20.2h-54.7v-30.5h54.7c7.4,0,13.5-9.1,13.5-20.2V492c0-11.2-6-20.2-13.5-20.2h-54.7v-30.5h54.7c7.4,0,13.5-9.1,13.5-20.2v-57.3c0-11.2-6-20.2-13.5-20.2h-54.7v-30.5h54.7c7.4,0,13.5-9.1,13.5-20.2v-57.3c0-11.2-6-20.2-13.5-20.2h-54.7v-29.3h108.9c16.1,0,29.2-13.4,29.2-29.9V75.5C990,59,976.9,45.6,960.8,45.6z M181.4,185.8h309.1v29.3H181.4V185.8z M820.1,215.1H522.2v-29.3h297.9V215.1z"/></g>
</svg>