<svg 
 xmlns="http://www.w3.org/2000/svg"
 xmlns:xlink="http://www.w3.org/1999/xlink"
 width="256px" height="132px">
<defs>
<filter id="Filter_0">
    <feFlood flood-color="rgb(0, 0, 0)" flood-opacity="1" result="floodOut" />
    <feComposite operator="atop" in="floodOut" in2="SourceGraphic" result="compOut" />
    <feBlend mode="normal" in="compOut" in2="SourceGraphic" />
</filter>

</defs>
<g filter="url(#Filter_0)">
<path fill-rule="evenodd"  fill="rgb(255, 255, 255)"
 d="M253.838,130.546 C251.766,131.751 249.111,131.46 247.907,128.974 L234.726,92.33 L181.815,92.33 L168.634,128.974 C167.430,131.46 164.775,131.751 162.702,130.546 C160.630,129.343 159.926,126.688 161.130,124.616 L204.27,4.389 C204.112,3.941 204.263,3.510 204.483,3.108 L204.517,3.13 C204.561,2.938 204.620,2.878 204.668,2.806 C204.748,2.684 204.831,2.566 204.924,2.453 C205.18,2.337 205.118,2.231 205.223,2.128 C205.317,2.34 205.412,1.944 205.516,1.859 C205.642,1.755 205.773,1.663 205.908,1.575 C205.972,1.533 206.25,1.480 206.92,1.441 C206.136,1.416 206.183,1.404 206.227,1.380 C206.367,1.306 206.511,1.244 206.657,1.185 C206.781,1.135 206.904,1.85 207.31,1.47 C207.165,1.7 207.302,0.980 207.440,0.953 C207.579,0.926 207.716,0.898 207.856,0.884 C207.994,0.871 208.132,0.873 208.270,0.873 C208.409,0.873 208.547,0.871 208.685,0.884 C208.825,0.898 208.962,0.926 209.101,0.953 C209.239,0.980 209.376,1.7 209.510,1.47 C209.637,1.85 209.760,1.135 209.884,1.185 C210.30,1.244 210.174,1.306 210.313,1.380 C210.358,1.404 210.405,1.416 210.449,1.441 C210.516,1.480 210.569,1.533 210.633,1.575 C210.768,1.663 210.899,1.755 211.25,1.859 C211.129,1.944 211.224,2.34 211.318,2.128 C211.422,2.231 211.523,2.337 211.617,2.453 C211.710,2.566 211.793,2.684 211.873,2.806 C211.921,2.878 211.980,2.938 212.24,3.13 L212.57,3.108 C212.278,3.510 212.429,3.941 212.514,4.389 L255.412,124.616 C256.615,126.688 255.911,129.343 253.838,130.546 ZM208.270,17.887 L184.911,83.355 L231.630,83.355 L208.270,17.887 ZM112.227,128.974 C111.23,131.46 108.368,131.751 106.296,130.546 C104.223,129.343 103.519,126.688 104.723,124.616 L148.111,3.13 C149.314,0.944 151.970,0.238 154.42,1.441 C156.114,2.644 156.818,5.301 155.615,7.374 L112.227,128.974 ZM77.101,131.84 L74.379,131.84 C73.992,131.140 73.606,131.132 73.224,131.84 L70.423,131.84 C69.871,131.84 69.423,130.637 69.423,130.84 L69.423,127.949 L8.677,21.546 L8.677,130.84 C8.677,130.637 8.230,131.84 7.677,131.84 L0.999,131.84 C0.447,131.84 0.0,130.637 0.0,130.84 L0.0,1.915 C0.0,1.362 0.447,0.915 0.999,0.915 L3.676,0.915 C4.98,0.850 4.520,0.856 4.936,0.915 L7.677,0.915 C8.230,0.915 8.677,1.362 8.677,1.915 L8.677,4.40 L69.423,110.446 L69.423,1.915 C69.423,1.362 69.871,0.915 70.423,0.915 L77.101,0.915 C77.653,0.915 78.101,1.362 78.101,1.915 L78.101,130.84 C78.101,130.637 77.653,131.84 77.101,131.84 Z"/>
</g>
</svg>