<svg 
 xmlns="http://www.w3.org/2000/svg"
 xmlns:xlink="http://www.w3.org/1999/xlink"
 width="54px" height="54px">
<path fill-rule="evenodd"  fill="rgb(239, 209, 12)"
 d="M52.999,27.999 L47.0,27.999 C46.447,27.999 45.999,27.552 45.999,27.0 C45.999,26.447 46.447,26.0 47.0,26.0 L52.999,26.0 C53.552,26.0 54.0,26.447 54.0,27.0 C54.0,27.552 53.552,27.999 52.999,27.999 ZM41.735,13.677 C41.345,14.67 40.712,14.67 40.321,13.677 C39.931,13.286 39.931,12.653 40.321,12.262 L44.325,8.289 C44.716,7.898 45.349,7.898 45.740,8.289 C46.130,8.680 46.130,9.313 45.740,9.703 L41.735,13.677 ZM26.999,42.0 C18.715,42.0 12.0,35.284 12.0,26.999 C12.0,18.715 18.715,11.999 26.999,11.999 C35.284,11.999 41.999,18.715 41.999,26.999 C41.999,35.284 35.284,42.0 26.999,42.0 ZM26.999,14.0 C19.820,14.0 13.999,19.820 13.999,26.999 C13.999,34.179 19.820,39.999 26.999,39.999 C34.179,39.999 40.0,34.179 40.0,26.999 C40.0,19.820 34.179,14.0 26.999,14.0 ZM27.0,8.0 C26.447,8.0 26.0,7.552 26.0,6.999 L26.0,1.0 C26.0,0.447 26.447,0.0 27.0,0.0 C27.552,0.0 27.999,0.447 27.999,1.0 L27.999,6.999 C27.999,7.552 27.552,8.0 27.0,8.0 ZM12.264,13.677 L8.259,9.703 C7.869,9.313 7.869,8.680 8.259,8.289 C8.650,7.898 9.283,7.898 9.674,8.289 L13.678,12.262 C14.68,12.653 14.68,13.286 13.678,13.677 C13.287,14.67 12.654,14.67 12.264,13.677 ZM6.999,27.999 L1.0,27.999 C0.447,27.999 0.0,27.552 0.0,27.0 C0.0,26.447 0.447,26.0 1.0,26.0 L6.999,26.0 C7.552,26.0 8.0,26.447 8.0,27.0 C8.0,27.552 7.552,27.999 6.999,27.999 ZM12.264,40.320 C12.654,39.929 13.287,39.929 13.678,40.320 C14.68,40.710 14.68,41.343 13.678,41.734 L9.674,45.707 C9.283,46.97 8.650,46.97 8.259,45.707 C7.869,45.316 7.869,44.683 8.259,44.293 L12.264,40.320 ZM27.0,45.999 C27.552,45.999 27.999,46.447 27.999,47.0 L27.999,52.999 C27.999,53.552 27.552,54.0 27.0,54.0 C26.447,54.0 26.0,53.552 26.0,52.999 L26.0,47.0 C26.0,46.447 26.447,45.999 27.0,45.999 ZM41.735,40.320 L45.740,44.293 C46.130,44.683 46.130,45.316 45.740,45.707 C45.349,46.97 44.716,46.97 44.325,45.707 L40.321,41.734 C39.931,41.343 39.931,40.710 40.321,40.320 C40.712,39.929 41.345,39.929 41.735,40.320 Z"/>
</svg>